<svg xmlns="http://www.w3.org/2000/svg" viewBox="0 0 1966.01 447.6"><title>Naza_Logo_Main</title><g id="Layer_2" data-name="Layer 2"><g id="Layer_1-2" data-name="Layer 1"><path d="M85.8,144V447.6H0V0H84.6L301.8,301.8V0h85.8V447.6H304.8Z"/><path d="M827,370.2H628.37L599,447.6h-88.8L686.57,0h85.2l176.4,447.6h-92.4Zm-25.8-69L728,105l-73.8,196.2Z"/><path d="M1395.59,447.6H1066.18l-1.8-10.2,215.4-363.6h-188.4L1123.78,0h288.61l1.8,10.8-216.61,363h228.61Z"/><path d="M1844.8,370.2H1646.2l-29.4,77.4H1528L1704.4,0h85.2L1966,447.6h-92.4Zm-25.8-69L1745.8,105,1672,301.2Z"/></g></g></svg>