<svg xmlns="http://www.w3.org/2000/svg" viewBox="0 0 1978.35 457.6"><defs><style>.cls-1{fill:#231f20;}</style></defs><title>Naza_Logo_Main_SMALL</title><g id="Layer_2" data-name="Layer 2"><g id="Layer_1-2" data-name="Layer 1"><polygon class="cls-1" points="301.8 291.3 93.66 2.08 92.16 0 0 0 0 457.6 95.8 457.6 95.8 164.48 307.25 457.6 397.6 457.6 397.6 0 301.8 0 301.8 291.3"/><path class="cls-1" d="M688.16,0,507.82,457.6h99.6l29.4-77.4H828.5l28.8,77.4H960.52L780.17,0ZM666.39,301.2,733,124.25l66,177Z"/><polygon class="cls-1" points="1424.42 16.79 1421.62 0 1125.52 0 1088.73 83.8 1276.01 83.8 1064.14 441.45 1066.99 457.6 1403.93 457.6 1438.67 373.8 1211.39 373.8 1424.42 16.79"/><path class="cls-1" d="M1798,0h-92L1525.66,457.6h99.59l29.4-77.4h191.68l28.8,77.4h103.22Zm18.79,301.2H1684.23l66.55-176.95Z"/></g></g></svg>