<?xml version="1.0" encoding="UTF-8"?>
<svg width="101px" height="99px" viewBox="0 0 101 99" version="1.1" xmlns="http://www.w3.org/2000/svg" xmlns:xlink="http://www.w3.org/1999/xlink">
    <!-- Generator: Sketch 55.1 (78136) - https://sketchapp.com -->
    <title>Burst_Yellow@1.5x</title>
    <desc>Created with Sketch.</desc>
    <g id="Booking-Flow-v.2" stroke="none" stroke-width="1" fill="none" fill-rule="evenodd">
        <g id="Booking-flow---Confirmation-page" transform="translate(-213.000000, -451.000000)" fill="#F8C149" fill-rule="nonzero">
            <g id="Burst_Yellow" transform="translate(263.162619, 501.263124) rotate(-8.000000) translate(-263.162619, -501.263124) translate(212.662619, 451.763124)">
                <path d="M99.8776982,62.461801 L99.5150323,62.3227944 L99.8959777,62.396538 C95.1265466,57.6039757 89.7080462,53.5169471 83.8019478,50.2572455 C86.577904,49.2205218 89.287174,48.0105082 91.9140379,46.6342255 C95.0737157,44.9781485 98.105994,43.0857601 100.985438,40.972934 L100.597546,40.9869453 L100.977029,40.9058274 C95.273481,38.5747645 89.2946018,36.9985367 83.1895835,36.2164758 C84.4647636,34.6250903 85.7560296,32.8751561 87.0249946,30.9578241 C89.0023973,27.9712229 90.7551903,24.8394213 92.2686608,21.5887076 L91.9356077,21.7896588 L92.2280802,21.5337687 C85.8466448,22.2959582 79.5966847,23.9248356 73.6480341,26.3761381 C74.745038,23.8205052 75.6938823,21.2027457 76.48977,18.5360939 C77.516445,15.0972776 78.2863381,11.5857466 78.7929908,8.03095816 L78.5323247,8.32113898 L78.7396146,7.98929306 C72.8425848,10.6043084 67.324212,14.0134102 62.3351982,18.1234988 C62.0518885,15.534266 61.6292517,12.9624771 61.069158,10.4195114 C60.2959463,6.91373844 59.2636825,3.47124074 57.9810141,0.120857553 L57.8943691,0.502480362 L57.9144766,0.111639611 C54.296507,4.95637099 51.3009482,10.2433762 48.9991839,15.846667 C47.5186343,13.7677607 45.9289726,11.7701488 44.2370006,9.86237893 C41.8636248,7.18568192 39.2948736,4.69195702 36.552286,2.4021139 L36.6619631,2.77783723 L36.4901355,2.42681799 C36.0128916,5.9856893 35.8004992,9.57560209 35.8547391,13.1664581 C35.8912981,15.6567774 36.0565451,17.9966599 36.3011252,20.1720943 C34.2568102,18.5946734 32.1293762,17.1299529 29.9281497,15.7843537 C26.8825068,13.9239914 23.7029652,12.2963422 20.4162131,10.9150679 L20.629718,11.2417518 L20.3639337,10.956733 C20.9378202,14.5004835 21.7741959,17.9958809 22.8660358,21.4135667 C23.637432,23.8290363 24.4892581,26.0583035 25.3703315,28.0973123 C19.0846241,27.0760722 12.6915981,26.9086605 6.36181324,27.5995434 L6.70473724,27.7839023 L6.33549072,27.6633316 C8.53214019,30.4892713 10.9354209,33.145435 13.5251957,35.6095665 C15.7796844,37.7547351 18.170612,39.7491905 20.6827287,41.5802121 C13.8665173,42.6028545 7.23333524,44.6168474 0.990190386,47.5593381 L1.37332935,47.6201766 L0.985437708,47.6268135 C3.97032413,49.5845921 7.09632644,51.3142856 10.3372456,52.8013975 C12.8846326,53.9705838 15.4981421,54.9873042 18.164175,55.8462682 C16.465641,57.2625129 14.7067845,58.8623789 12.9362292,60.6657771 C10.4305872,63.2174742 8.11797243,65.9548717 6.01779248,68.854997 L6.38338309,68.72189 L6.04630854,68.9162042 C9.59742296,69.181532 13.1632555,69.1782042 16.713877,68.9062488 C19.2803044,68.7095402 21.8342836,68.3727764 24.3645917,67.8974372 C23.1727663,69.7248021 21.977285,71.7383694 20.8275026,73.9444073 C19.1702822,77.1229395 17.7512401,80.4220974 16.5822644,83.8142425 L16.8926508,83.579738 L16.6268664,83.8647568 C20.1000984,83.0725697 23.5096265,82.0191468 26.8268445,80.7133267 C29.1909675,79.7826036 31.5040693,78.7250873 33.756249,77.5453043 C33.297908,83.5931356 33.600339,89.6751565 34.656333,95.6463931 L34.813537,95.2883683 L34.7195802,95.6681475 C37.3647789,93.264015 39.8277068,90.6634253 42.0876934,87.8882042 C43.7269257,85.8750738 45.2564958,83.7736042 46.6696405,81.5930871 C49.2782524,87.5340083 52.6734615,93.0908018 56.7625006,98.1116396 L56.7259415,97.721905 L56.8283069,98.0994719 C57.9695635,94.6975789 58.8566508,91.2142747 59.4821291,87.6787726 C59.9669231,84.9372804 60.2933365,82.1696902 60.4597184,79.3899989 C64.6676682,84.2880662 69.5129881,88.5897831 74.8639885,92.1782345 L74.7177523,91.8161538 L74.9250421,92.1479997 C75.0316746,88.558381 74.8715856,84.9657486 74.4461184,81.4002477 C74.1726567,79.111617 73.8052381,76.9619929 73.3807874,74.9613307 C79.1773047,77.0461651 85.2171298,78.365099 91.349566,78.8852244 L91.0472225,78.6400271 L91.3868562,78.8291793 C89.7644659,75.6320961 87.9069453,72.5620473 85.8298789,69.6447903 C84.4442905,67.6983297 83.0407881,65.9325406 81.6621459,64.3374679 C84.2215233,64.4077095 86.7827944,64.3386589 89.3347961,64.1306173 C92.8854957,63.8407364 96.4096642,63.2829023 99.8776982,62.461801 Z" id="Path"></path>
            </g>
        </g>
    </g>
</svg>