<?xml version="1.0" encoding="UTF-8"?>
<svg width="71px" height="167px" viewBox="0 0 71 167" version="1.1" xmlns="http://www.w3.org/2000/svg" xmlns:xlink="http://www.w3.org/1999/xlink">
    <!-- Generator: Sketch 55.1 (78136) - https://sketchapp.com -->
    <title>Burst_Purple@1.5x</title>
    <desc>Created with Sketch.</desc>
    <g id="Booking-Flow-v.2" stroke="none" stroke-width="1" fill="none" fill-rule="evenodd" opacity="0.9">
        <g id="Booking-flow---Confirmation-page" transform="translate(-304.000000, -956.000000)" fill="#A84C7B" fill-rule="nonzero">
            <g id="Burst_Purple" transform="translate(393.500000, 1040.000000) rotate(1.000000) translate(-393.500000, -1040.000000) translate(304.000000, 953.000000)">
                <path d="M177.017146,110.703348 L176.367974,110.45654 L177.049867,110.587473 C168.512585,102.078229 158.813469,94.8216684 148.241553,89.0340349 C153.210515,87.1933215 158.060108,85.0449299 162.762194,82.6013259 C168.418018,79.6609443 173.845796,76.3009895 179,72.5496452 L178.305674,72.5745224 L178.984949,72.4304967 C168.775597,68.2916707 158.073404,65.4930621 147.145421,64.1045051 C149.427993,61.2789838 151.739359,58.1719579 154.010807,54.7677154 C157.550358,49.4649744 160.687857,43.9044287 163.396969,38.1327534 L162.800804,38.4895442 L163.32433,38.0352088 C151.901561,39.3884841 140.714132,42.2805724 130.066048,46.6328851 C132.029685,42.0953328 133.728116,37.4474741 135.152755,32.7128065 C136.990503,26.6071532 138.368612,20.372394 139.27552,14.0608309 L138.808928,14.5760499 L139.179977,13.9868541 C128.624293,18.6298405 118.746406,24.6827355 109.816071,31.9802397 C109.308947,27.3830306 108.552427,22.8167931 107.549859,18.3017315 C106.16581,12.0771959 104.318058,5.96500609 102.022082,0.0163665505 L101.866987,0.693941743 L101.90298,0 C95.426814,8.60187 90.0647638,17.9890017 85.9446057,27.9377018 C83.294422,24.2465823 80.4489274,20.6998021 77.4202976,17.3125372 C73.1719548,12.5600343 68.5738903,8.13240029 63.6646584,4.06676048 L63.8609805,4.73386108 L63.5534091,4.11062283 C62.6991425,10.4294352 62.3189601,16.803362 62.4160494,23.1789635 C62.4814901,27.6005508 62.7772822,31.755036 63.2150806,35.6175419 C59.5557568,32.8168152 55.7476499,30.2161888 51.8074544,27.8270639 C46.3557536,24.5239716 40.6643743,21.6340637 34.781088,19.1815972 L35.1632618,19.7616278 L34.6875078,19.255574 C35.7147647,25.5475392 37.2118771,31.7536529 39.1662706,37.821789 C40.5470698,42.1104799 42.0718386,46.0685664 43.6489599,49.6888474 C32.3975436,47.8756252 20.9540271,47.578384 9.62371221,48.8050537 L10.2375462,49.1323847 L9.57659489,48.9183102 C13.5085974,53.9357951 17.81047,58.6518409 22.4461668,63.0269314 C26.4817016,66.8357001 30.7614619,70.3768762 35.2581508,73.6278736 C23.0571324,75.4435856 11.1837366,79.0194505 0.00850729353,84.2438729 L0.694326034,84.3518921 L0,84.363676 C5.34294669,87.8397319 10.9384908,90.9108204 16.739736,93.5512028 C21.2995589,95.627105 25.9777408,97.4323024 30.7499397,98.9574018 C27.7095639,101.471959 24.5612108,104.312537 21.3919168,107.514489 C16.9068177,112.045053 12.7672372,116.90533 9.00791504,122.054533 L9.66232223,121.8182 L9.0589588,122.163206 C15.4154536,122.634299 21.7982939,122.62839 28.1539063,122.145531 C32.7478113,121.796272 37.3194342,121.198345 41.8486857,120.354375 C39.7153182,123.59888 37.5754067,127.17399 35.5172961,131.090832 C32.5508716,136.734349 30.0107864,142.592037 27.9183197,148.614825 L28.4739115,148.19846 L27.9981574,148.704514 C34.2152426,147.297978 40.318298,145.427615 46.2561182,143.109118 C50.4878984,141.45661 54.6283505,139.578979 58.6597521,137.484262 C57.8393219,148.222248 58.3806733,159.020938 60.2709026,169.62293 L60.5522977,168.987253 L60.3841151,169.661555 C65.1190207,165.392993 69.5276617,160.775619 73.5730377,155.848186 C76.5072635,152.273853 79.245194,148.542672 81.7747231,144.671141 C86.4441383,155.219308 92.5215626,165.085451 99.8409425,174 L99.7755018,173.308022 L99.9587358,173.978396 C102.001585,167.9383 103.589471,161.753658 104.709078,155.476338 C105.576859,150.608791 106.161139,145.694906 106.458962,140.759536 C113.991193,149.456104 122.664315,157.093847 132.242606,163.465179 L131.980843,162.822301 L132.351892,163.411496 C132.542764,157.038092 132.256205,150.659336 131.494619,144.328753 C131.005122,140.265266 130.347443,136.448586 129.587676,132.89639 C139.963442,136.598035 150.774729,138.939816 161.75179,139.863304 L161.210595,139.427953 L161.818539,139.763795 C158.914461,134.087341 155.589499,128.636438 151.87155,123.456819 C149.391346,120.000858 146.879077,116.865681 144.411308,114.033614 C148.992593,114.158328 153.577268,114.035728 158.145352,113.666348 C164.501104,113.151662 170.809365,112.161222 177.017146,110.703348 Z" id="Path"></path>
            </g>
        </g>
    </g>
</svg>