<?xml version="1.0" encoding="UTF-8"?>
<svg width="84px" height="150px" viewBox="0 0 84 150" version="1.1" xmlns="http://www.w3.org/2000/svg" xmlns:xlink="http://www.w3.org/1999/xlink">
    <!-- Generator: Sketch 55.1 (78136) - https://sketchapp.com -->
    <title>Burst_Pink_1@1.5x</title>
    <desc>Created with Sketch.</desc>
    <g id="Booking-Flow-v.2" stroke="none" stroke-width="1" fill="none" fill-rule="evenodd">
        <g id="Booking-flow---Confirmation-page" transform="translate(0.000000, -30.000000)" fill="#EB8E93" fill-rule="nonzero">
            <g id="Burst_Pink_1" transform="translate(4.500000, 103.000000) rotate(10.000000) translate(-4.500000, -103.000000) translate(-74.000000, 27.000000)">
                <path d="M155.260849,96.7063728 L154.691463,96.4907708 L155.289548,96.6051485 C147.801541,89.1717866 139.294495,82.8327218 130.021921,77.7768581 C134.380172,76.1688785 138.633726,74.2921227 142.757902,72.1574801 C147.718596,69.5888709 152.479273,66.6537379 157,63.3767016 L156.39101,63.3984333 L156.986799,63.2726178 C148.032228,59.6570916 138.645388,57.2123302 129.060509,55.9993378 C131.062542,53.5310663 133.089829,50.8168828 135.082104,47.8430617 C138.186627,43.2107822 140.938512,38.3532941 143.31466,33.3113708 L142.791767,33.6230501 L143.250949,33.2261594 C133.232095,34.4083309 123.419658,36.9347529 114.080276,40.7367732 C115.802572,36.7729344 117.292258,32.712736 118.541802,28.5767046 C120.153681,23.2430304 121.362414,17.7965741 122.157858,12.2830247 L121.748613,12.7331011 L122.074058,12.2184013 C112.815721,16.2743434 104.151876,21.5619298 96.319124,27.9367612 C95.8743278,23.9208084 95.210788,19.9319113 94.3314408,15.9877194 C93.1174985,10.5501941 91.4968443,5.21080992 89.4830549,0.0142972166 L89.3470223,0.606201982 L89.378591,0 C83.6983787,7.51427724 78.9953515,15.7145303 75.3815815,24.4053487 C73.0571187,21.1809225 70.5613498,18.0825857 67.9049538,15.1235957 C64.1787537,10.971984 60.1458144,7.10416577 55.8399517,3.55257237 L56.0121449,4.13532692 L55.7423756,3.59088891 C54.9931027,9.11077094 54.6596466,14.6787989 54.7448031,20.24829 C54.8022009,24.110826 55.0616386,27.7400315 55.4456294,31.1141746 C52.2360548,28.6675627 48.8959834,26.3957511 45.4400578,24.3086995 C40.6583984,21.4232396 35.6665182,18.8987223 30.5063174,16.7563378 L30.8415201,17.2630312 L30.4242387,16.8209612 C31.3252406,22.3173906 32.6383503,27.7388232 34.352539,33.0397237 C35.563631,36.7861663 36.9009981,40.2438052 38.2842833,43.4063495 C28.4157226,41.8223853 18.3786718,41.5627262 8.44090959,42.6342998 L8.97930026,42.9202441 L8.39958323,42.7332365 C11.8483229,47.1163268 15.6214737,51.2360909 19.68742,55.0580091 C23.2269674,58.3852093 26.9807236,61.4786504 30.9247468,64.3186022 C20.2232949,65.9047415 9.80919913,69.0284855 0.00746170438,73.5923487 L0.608989873,73.6867104 L0,73.6970044 C4.68627168,76.7335589 9.5940953,79.4163489 14.6823383,81.7228898 C18.681736,83.5363216 22.7849459,85.1132756 26.9706175,86.4455464 C24.3039191,88.6421708 21.5425145,91.1235957 18.7627427,93.9207031 C14.8288848,97.8784373 11.1980795,102.124197 7.90079699,106.62235 L8.47477425,106.415899 L7.94556721,106.717284 C13.5208168,107.128813 19.119174,107.123651 24.6936497,106.701843 C28.7229407,106.396744 32.7326881,105.874416 36.7052718,105.137155 C34.8341059,107.971436 32.9572003,111.09452 31.1520418,114.51613 C28.5502058,119.446098 26.3223098,124.563159 24.4870179,129.824445 L24.9743246,129.460724 L24.5570431,129.902794 C30.0100173,128.674096 35.3629764,127.040215 40.5710087,125.014862 C44.2826818,123.571291 47.9142516,121.931062 51.4501737,120.101194 C50.7305784,129.481504 51.205395,138.914842 52.8633057,148.176352 L53.1101159,147.621049 L52.9626037,148.210094 C57.1155656,144.481235 60.9823625,140.447668 64.5305414,136.143243 C67.1041362,133.020837 69.5055612,129.761414 71.7241984,126.379388 C75.8197191,135.593878 81.1501974,144.212578 87.5699887,152 L87.5125909,151.395514 L87.6733046,151.981128 C89.4650775,146.704722 90.8578046,141.302046 91.8398055,135.81841 C92.6009321,131.5663 93.1134011,127.273711 93.3746207,122.962353 C99.9811019,130.559356 107.588254,137.231406 115.989325,142.797168 L115.759734,142.235573 L116.085179,142.750273 C116.252592,137.182701 116.001252,131.610455 115.333269,126.08029 C114.903934,122.530577 114.327087,119.196466 113.660699,116.093398 C122.761231,119.327019 132.243757,121.372713 141.871681,122.179438 L141.397002,121.799132 L141.930227,122.092511 C139.383074,117.133769 136.466767,112.372061 133.205773,107.847336 C131.030399,104.828336 128.8269,102.089561 126.662432,99.6155704 C130.680654,99.7245165 134.70185,99.6174177 138.708493,99.2947409 C144.283091,98.8451297 149.816036,97.9799177 155.260849,96.7063728 Z" id="Path"></path>
            </g>
        </g>
    </g>
</svg>