<?xml version="1.0" encoding="UTF-8"?>
<svg width="37px" height="85px" viewBox="0 0 37 85" version="1.1" xmlns="http://www.w3.org/2000/svg" xmlns:xlink="http://www.w3.org/1999/xlink">
    <!-- Generator: Sketch 55.1 (78136) - https://sketchapp.com -->
    <title>Burst_Brown@1.5x</title>
    <desc>Created with Sketch.</desc>
    <g id="Booking-Flow-v.2" stroke="none" stroke-width="1" fill="none" fill-rule="evenodd">
        <g id="Booking-flow---Confirmation-page" transform="translate(0.000000, -827.000000)" fill="#BC5940" fill-rule="nonzero">
            <g id="Burst_Brown" transform="translate(-63.000000, 820.000000)">
                <path d="M98.8922604,61.7139353 L98.5295946,61.5763471 L98.91054,61.6493382 C94.1411089,56.9056796 88.7226085,52.8603554 82.8165101,49.633916 C85.5924663,48.6077712 88.3017363,47.4101046 90.9286002,46.0478656 C94.088278,44.4086873 97.1205563,42.5356091 100,40.4443424 L99.6121084,40.4582107 L99.9915914,40.3779206 C94.2880433,38.070644 88.3091641,36.5105002 82.2041458,35.7364195 C83.4793259,34.1612726 84.7705919,32.4291949 86.0395569,30.5314275 C88.0169596,27.5753018 89.7697526,24.4754574 91.283223,21.2579143 L90.95017,21.4568149 L91.2426425,21.2035359 C84.8612071,21.957948 78.611247,23.5702042 72.6625964,25.9964934 C73.7596003,23.4669384 74.7084445,20.8758907 75.5043322,18.2364496 C76.5310073,14.8327233 77.3009004,11.3570243 77.8075531,7.83850918 L77.546887,8.12572897 L77.7541769,7.79726923 C71.857147,10.3856007 66.3387743,13.7599157 61.3497605,17.8280647 C61.0664508,15.2652527 60.643814,12.7197065 60.0837203,10.2026894 C59.3105086,6.73268966 58.2782448,3.32531949 56.9955764,0.00912388162 L56.9089314,0.386852581 L56.9290389,0 C53.3110693,4.79529534 50.3155105,10.0283515 48.0137462,15.5744659 C46.5331966,13.5167729 44.9435349,11.5395448 43.2515629,9.65124198 C40.8781871,7.0018582 38.3094359,4.53357947 35.5668482,2.2671021 L35.6765254,2.63899152 L35.5046978,2.29155411 C35.0274539,5.8141104 34.8150615,9.36739143 34.8693014,12.9216061 C34.9058604,15.386514 35.0711074,17.7025201 35.3156875,19.8557561 C33.2713725,18.2944314 31.1439385,16.844657 28.942712,15.5127885 C25.897069,13.6714095 22.7175275,12.0603689 19.4307754,10.6931893 L19.6442803,11.0165396 L19.378496,10.7344292 C19.9523825,14.242019 20.7887582,17.701749 21.8805981,21.0845605 C22.6519943,23.4753825 23.5038204,25.681902 24.3848938,27.7001046 C18.0991864,26.6892853 11.7061604,26.5235819 5.37637553,27.207415 L5.71929953,27.3898926 L5.35005301,27.2705522 C7.54670248,30.0676559 9.94998323,32.6967159 12.539758,35.1357032 C14.7942467,37.2589823 17.1851742,39.2330861 19.697291,41.0454238 C12.8810796,42.0576311 6.24789753,44.051073 0.00475267795,46.9635383 L0.387891639,47.023756 L0,47.0303251 C2.98488642,48.9681264 6.11088873,50.68017 9.35180785,52.1521073 C11.8991949,53.3093631 14.5127044,54.3157088 17.1787373,55.1659079 C15.4802033,56.5677011 13.7213468,58.151242 11.9507915,59.9362382 C9.44514953,62.4618975 7.13253473,65.1713623 5.03235477,68.0418946 L5.39794538,67.9101458 L5.06087084,68.1024772 C8.61198525,68.3650976 12.1778178,68.3618038 15.7284393,68.0926234 C18.2948667,67.897922 20.8488459,67.5645946 23.379154,67.0941058 C22.1873286,68.9028241 20.9918473,70.8958448 19.8420649,73.0793721 C18.1848445,76.2254703 16.7658024,79.4909633 15.5968267,82.8484947 L15.9072131,82.6163831 L15.6414287,82.8984935 C19.1146607,82.1143899 22.5241888,81.0717163 25.8414068,79.7792209 C28.2055298,78.857995 30.5186316,77.8112697 32.7708112,76.6435252 C32.3124703,82.629644 32.6149013,88.6496034 33.6708953,94.5599091 L33.8280993,94.2055375 L33.7341425,94.5814415 C36.3793412,92.201841 38.8422691,89.6277878 41.1022557,86.8808854 C42.741488,84.8882971 44.2710581,82.808271 45.6842028,80.6500041 C48.2928147,86.5303037 51.6880238,92.0303953 55.7770628,97 L55.7405038,96.6142423 L55.8428692,96.9879565 C56.9841258,93.6207766 57.8712131,90.1730163 58.4966914,86.6735908 C58.9814854,83.9600731 59.3078988,81.2207235 59.4742807,78.4693964 C63.6822305,83.3174835 68.5275504,87.5753053 73.8785508,91.1271399 L73.7323146,90.7687538 L73.9396044,91.0972135 C74.0462369,87.5442236 73.8861479,83.9882507 73.4606807,80.4591325 C73.187219,78.1938552 72.8198004,76.066166 72.3953497,74.0859187 C78.191867,76.1494793 84.2316921,77.4549547 90.3641282,77.9697727 L90.0617848,77.7270774 L90.4014185,77.9142995 C88.7790282,74.7498396 86.9215076,71.7111178 84.8444412,68.8236288 C83.4588528,66.8970299 82.0553504,65.1492592 80.6767082,63.5704627 C83.2360856,63.6399875 85.7973567,63.5716416 88.3493584,63.3657228 C91.900058,63.0787999 95.4242265,62.526658 98.8922604,61.7139353 Z" id="Path"></path>
            </g>
        </g>
    </g>
</svg>