<?xml version="1.0" encoding="UTF-8"?>
<svg width="38px" height="83px" viewBox="0 0 38 83" version="1.1" xmlns="http://www.w3.org/2000/svg" xmlns:xlink="http://www.w3.org/1999/xlink">
    <!-- Generator: Sketch 55.1 (78136) - https://sketchapp.com -->
    <title>Burst_Tan@1.5x</title>
    <desc>Created with Sketch.</desc>
    <g id="Booking-Flow-v.2" stroke="none" stroke-width="1" fill="none" fill-rule="evenodd">
        <g id="Booking-flow---Confirmation-page" transform="translate(-337.000000, -179.000000)" fill="#CDAE8D" fill-rule="nonzero">
            <g id="Burst_Tan" transform="translate(337.000000, 177.000000)">
                <path d="M87.1232971,55.0241218 L86.8041511,54.9021364 L87.1393831,54.9668501 C82.9422837,50.7611322 78.1740034,47.1745561 72.9766368,44.3140016 C75.4194782,43.4042237 77.8036358,42.342375 80.115276,41.1346167 C82.8957925,39.6813247 85.5641974,38.0206573 88.0981079,36.1665446 L87.7567632,36.1788402 L88.0907083,36.1076552 C83.071586,34.0620285 77.8101723,32.6788082 72.4377562,31.9925099 C73.5599146,30.5959879 74.6962288,29.0603314 75.812918,27.3777747 C77.5530323,24.7568797 79.0954902,22.0085641 80.4273442,19.155897 L80.1342575,19.3322419 L80.3916333,19.1076853 C74.7759702,19.7765455 69.2760053,21.2059684 64.0411927,23.3571115 C65.0065561,21.1144132 65.8415391,18.8171957 66.5419203,16.4770727 C67.4453943,13.4593359 68.1229002,10.3777883 68.5687546,7.25828009 L68.3393684,7.51292857 L68.5217835,7.22171684 C63.3323973,9.51652621 58.4762293,12.5081869 54.0858972,16.1149994 C53.8365846,13.8428156 53.4646642,11.5859396 52.9717817,9.35435739 C52.2913555,6.27786279 51.3829633,3.25689542 50.2542151,0.316763234 L50.1779675,0.65165672 L50.1956621,0.30867402 C47.0118488,4.56017298 44.3757571,9.19978983 42.3502045,14.1169634 C41.0473209,12.292617 39.6484186,10.5396107 38.1594832,8.86544526 C36.0709125,6.51650706 33.8104115,4.32813623 31.3969343,2.31868207 L31.4934503,2.64839846 L31.342242,2.34036117 C30.9222673,5.46345232 30.735362,8.61378395 30.7830931,11.7649433 C30.8152651,13.9503256 30.9606824,16.0036918 31.1759129,17.9127465 C29.3769157,16.5284792 27.5047738,15.2431122 25.5676944,14.0622803 C22.8875287,12.4297175 20.0895321,11.0013722 17.1971903,9.78923357 L17.3850746,10.0759153 L17.1511843,9.82579682 C17.6562045,12.9356187 18.3922151,16.0030082 19.3530342,19.0022019 C20.0318629,21.1218997 20.7814699,23.0781954 21.5568144,24.8675296 C16.0253919,23.9713394 10.399529,23.824427 4.82931836,24.4307121 L5.13109147,24.5924963 L4.80615454,24.4866894 C6.73920607,26.9665957 8.85409313,29.2975149 11.1330949,31.459916 C13.117045,33.3424109 15.2210612,35.0926473 17.4317239,36.6994621 C11.4334579,37.596883 5.59625772,39.3642645 0.102290244,41.9464503 L0.43945253,41.9998391 L0.0981078873,42.0056633 C2.72480794,43.7237139 5.47568997,45.2416083 8.32769879,46.5466249 C10.5693994,47.5726455 12.8692877,48.4648694 15.2153967,49.2186542 C13.7206868,50.4614812 12.1728931,51.8654453 10.6148044,53.4480192 C8.40983947,55.6872635 6.37473845,58.0894695 4.52658008,60.6344775 L4.84829982,60.5176692 L4.55167422,60.6881899 C7.67665491,60.9210286 10.8145876,60.9181083 13.9391345,60.6794535 C16.1975906,60.5068317 18.4450923,60.2113043 20.6717634,59.7941699 C19.6229571,61.3977758 18.5709335,63.1647838 17.559125,65.1006947 C16.100771,67.8900188 14.852014,70.7851982 13.8233154,73.7619786 L14.0964554,73.5561889 L13.8625652,73.8063075 C16.9190093,73.1111228 19.919394,72.1866906 22.8385459,71.0407668 C24.9189741,70.2240098 26.9545037,69.2959853 28.9364218,68.2606655 C28.5330818,73.567946 28.799221,78.9052296 29.7284958,84.1452945 L29.8668353,83.8311094 L29.7841533,84.164385 C32.1119281,82.0546361 34.2793047,79.7724859 36.2680929,77.3370879 C37.7106173,75.5704632 39.056639,73.7263164 40.3002064,71.8128014 C42.5957848,77.0262628 45.5835688,81.9026327 49.1819232,86.308674 L49.1497512,85.966662 L49.2398327,86.2979963 C50.2441386,83.3126615 51.0247754,80.2558844 51.5751963,77.1533009 C52.0018151,74.7475017 52.2890588,72.3188 52.4354749,69.8794791 C56.1384708,74.1777831 60.4023522,77.9527592 65.1112326,81.1018083 L64.9825447,80.784064 L65.1649598,81.0752757 C65.2587964,77.9252021 65.117918,74.7724839 64.7435069,71.643575 C64.5028606,69.6351848 64.1795322,67.74878 63.8060156,65.9930968 C68.9069509,67.8226454 74.2219969,68.9800772 79.6185407,69.4365137 L79.3524785,69.2213406 L79.6513562,69.3873313 C78.2236527,66.5817277 76.5890346,63.8876032 74.7612161,61.3275614 C73.5418983,59.6194428 72.3068163,58.0698729 71.0936111,56.6701152 C73.3458632,56.7317557 75.5997818,56.6711604 77.8455433,56.4885932 C80.9701589,56.2342079 84.0714272,55.7446801 87.1232971,55.0241218 Z" id="Path"></path>
            </g>
        </g>
    </g>
</svg>