<svg xmlns="http://www.w3.org/2000/svg" width="119" height="14" viewBox="0 0 119 14">
    <g fill="none" fill-rule="evenodd">
        <path fill="#1C3042" d="M59.525.085c3.15-.684 1.378 2.881.147 6.543 2.806-3.271 4.627-6.25 5.66-3.076 2.215 2.442-1.722 2.686-5.414 3.418 4.135.88 7.58.928 5.414 3.467-.935 3.175-3.1-.195-5.61-3.076 1.378 4.102 3.002 7.178-.197 6.544-3.15.732-1.428-2.882-.197-6.495-2.806 3.223-4.578 6.202-5.66 3.027-2.166-2.392 1.722-2.685 5.414-3.418-4.135-.83-7.58-.928-5.414-3.467.984-3.125 3.15.195 5.61 3.076-1.328-4.102-3.002-7.178.247-6.543z"/>
        <g stroke="#1C3042" stroke-linecap="square">
            <path d="M76 5.5h42M76 9.5h42"/>
        </g>
        <g stroke="#1C3042" stroke-linecap="square">
            <path d="M1 5.5h42M1 9.5h42"/>
        </g>
    </g>
</svg>
