<?xml version="1.0" encoding="UTF-8"?>
<svg width="22px" height="22px" viewBox="0 0 22 22" version="1.1" xmlns="http://www.w3.org/2000/svg" xmlns:xlink="http://www.w3.org/1999/xlink">
    <!-- Generator: Sketch 55.2 (78181) - https://sketchapp.com -->
    <title>noun_Calendar_1074173</title>
    <desc>Created with Sketch.</desc>
    <g id="Booking-flow" stroke="none" stroke-width="1" fill="none" fill-rule="evenodd">
        <g id="booking-flow-step-5-a-a-mobile" transform="translate(-29.000000, -492.000000)" fill="#BC5940" fill-rule="nonzero">
            <g id="Group-5" transform="translate(29.000000, 492.000000)">
                <g id="noun_Calendar_1074173">
                    <path d="M0.127906977,18.6744186 C0.127906977,20.4377442 1.56225581,21.872093 3.3255814,21.872093 L18.6744186,21.872093 C20.4377442,21.872093 21.872093,20.4377442 21.872093,18.6744186 L21.872093,5.88372093 C21.872093,4.12039535 20.4377442,2.68604651 18.6744186,2.68604651 L16.755814,2.68604651 L16.755814,0.76744186 C16.755814,0.414162791 16.4695581,0.127906977 16.1162791,0.127906977 C15.763,0.127906977 15.4767442,0.414162791 15.4767442,0.76744186 L15.4767442,2.68604651 L11.6395349,2.68604651 L11.6395349,0.76744186 C11.6395349,0.414162791 11.3532791,0.127906977 11,0.127906977 C10.6467209,0.127906977 10.3604651,0.414162791 10.3604651,0.76744186 L10.3604651,2.68604651 L6.52325581,2.68604651 L6.52325581,0.76744186 C6.52325581,0.414162791 6.237,0.127906977 5.88372093,0.127906977 C5.53044186,0.127906977 5.24418605,0.414162791 5.24418605,0.76744186 L5.24418605,2.68604651 L3.3255814,2.68604651 C1.56225581,2.68604651 0.127906977,4.12039535 0.127906977,5.88372093 L0.127906977,18.6744186 Z M1.40697674,5.88372093 C1.40697674,4.82567442 2.26753488,3.96511628 3.3255814,3.96511628 L5.24418605,3.96511628 L5.24418605,5.88372093 C5.24418605,6.237 5.53044186,6.52325581 5.88372093,6.52325581 C6.237,6.52325581 6.52325581,6.237 6.52325581,5.88372093 L6.52325581,3.96511628 L10.3604651,3.96511628 L10.3604651,5.88372093 C10.3604651,6.237 10.6467209,6.52325581 11,6.52325581 C11.3532791,6.52325581 11.6395349,6.237 11.6395349,5.88372093 L11.6395349,3.96511628 L15.4767442,3.96511628 L15.4767442,5.88372093 C15.4767442,6.237 15.763,6.52325581 16.1162791,6.52325581 C16.4695581,6.52325581 16.755814,6.237 16.755814,5.88372093 L16.755814,3.96511628 L18.6744186,3.96511628 C19.7324651,3.96511628 20.5930233,4.82567442 20.5930233,5.88372093 L20.5930233,7.80232558 L1.40697674,7.80232558 L1.40697674,5.88372093 Z M1.40697674,9.08139535 L20.5930233,9.08139535 L20.5930233,18.6744186 C20.5930233,19.7324651 19.7324651,20.5930233 18.6744186,20.5930233 L3.3255814,20.5930233 C2.26753488,20.5930233 1.40697674,19.7324651 1.40697674,18.6744186 L1.40697674,9.08139535 Z" id="Shape"></path>
                    <path d="M8.62911628,18.4871628 C8.7542093,18.612 8.91767442,18.6744186 9.08139535,18.6744186 C9.24511628,18.6744186 9.4085814,18.612 9.53367442,18.4871628 L15.9290233,12.091814 C16.1789535,11.8418837 16.1789535,11.437186 15.9290233,11.1875116 C15.679093,10.9378372 15.2743953,10.9375814 15.0247209,11.1875116 L9.08139535,17.1305814 L6.97553488,15.0247209 C6.72560465,14.7747907 6.32090698,14.7747907 6.07123256,15.0247209 C5.82155814,15.2746512 5.82130233,15.6793488 6.07123256,15.9290233 L8.62911628,18.4871628 Z" id="Path"></path>
                </g>
            </g>
        </g>
    </g>
</svg>