<?xml version="1.0" encoding="UTF-8"?>
<svg width="25px" height="26px" viewBox="0 0 25 26" version="1.1" xmlns="http://www.w3.org/2000/svg" xmlns:xlink="http://www.w3.org/1999/xlink">
    <!-- Generator: Sketch 55.2 (78181) - https://sketchapp.com -->
    <title>noun_shampoo_2677530</title>
    <desc>Created with Sketch.</desc>
    <g id="Booking-flow" stroke="none" stroke-width="1" fill="none" fill-rule="evenodd">
        <g id="booking-flow-step-5-a-a-mobile" transform="translate(-37.000000, -2104.000000)" fill="#BC5940" fill-rule="nonzero" stroke="#BC5940" stroke-width="0.25">
            <g id="Group-9" transform="translate(0.000000, 452.000000)">
                <g id="Group-19" transform="translate(0.000000, 1518.000000)">
                    <g id="Group-18" transform="translate(38.000000, 135.000000)">
                        <g id="Group-4">
                            <g id="noun_shampoo_2677530">
                                <path d="M14.0705645,7.48104839 C14.0020161,7.34435484 13.8625,7.25806452 13.7096774,7.25806452 L11.2903226,7.25806452 L11.2903226,3.22580645 C11.2903226,3.00282258 11.1096774,2.82258065 10.8870968,2.82258065 L8.87096774,2.82258065 L8.87096774,0.806451613 L10.7919355,0.806451613 L12.3197581,1.57056452 L12.6806452,0.849193548 L11.0677419,0.0427419355 C11.0116935,0.014516129 10.9495968,0 10.8870968,0 L8.46774194,0 L6.85483871,0 L4.83870968,0 L4.83870968,0.806451613 L6.4516129,0.806451613 L6.4516129,2.82258065 L4.43548387,2.82258065 C4.21290323,2.82258065 4.03225806,3.00282258 4.03225806,3.22580645 L4.03225806,7.25806452 L1.61290323,7.25806452 C1.46008065,7.25806452 1.32056452,7.34435484 1.25201613,7.48104839 L0.0423387097,9.90040323 C0.014516129,9.95604839 0,10.0181452 0,10.0806452 L0,22.1774194 C0,23.2891129 0.904435484,24.1935484 2.01612903,24.1935484 L13.3064516,24.1935484 C14.4181452,24.1935484 15.3225806,23.2891129 15.3225806,22.1774194 L15.3225806,10.0806452 C15.3225806,10.0181452 15.3080645,9.95604839 15.2802419,9.90040323 L14.0705645,7.48104839 Z M10.483871,7.25806452 L9.67741935,7.25806452 L9.67741935,3.62903226 L10.483871,3.62903226 L10.483871,7.25806452 Z M6.85483871,3.62903226 L7.25806452,3.62903226 L7.25806452,7.25806452 L6.4516129,7.25806452 L6.4516129,3.62903226 L6.85483871,3.62903226 Z M8.06451613,3.62903226 L8.46774194,3.62903226 L8.87096774,3.62903226 L8.87096774,7.25806452 L8.06451613,7.25806452 L8.06451613,3.62903226 Z M7.25806452,0.806451613 L8.06451613,0.806451613 L8.06451613,2.82258065 L7.25806452,2.82258065 L7.25806452,0.806451613 Z M4.83870968,3.62903226 L5.64516129,3.62903226 L5.64516129,7.25806452 L4.83870968,7.25806452 L4.83870968,3.62903226 Z M1.86209677,8.06451613 L4.43548387,8.06451613 L10.8870968,8.06451613 L13.4604839,8.06451613 L14.516129,10.1758065 L14.516129,10.8870968 L0.806451613,10.8870968 L0.806451613,10.1758065 L1.86209677,8.06451613 Z M14.516129,11.6935484 L14.516129,21.3709677 L0.806451613,21.3709677 L0.806451613,11.6935484 L14.516129,11.6935484 Z M13.3064516,23.3870968 L2.01612903,23.3870968 C1.34919355,23.3870968 0.806451613,22.8443548 0.806451613,22.1774194 L14.516129,22.1774194 C14.516129,22.8443548 13.9733871,23.3870968 13.3064516,23.3870968 Z" id="Shape"></path>
                                <path d="M23.3870968,12.0967742 L22.1774194,12.0967742 L22.1774194,8.87096774 C22.1774194,8.64798387 21.9967742,8.46774194 21.7741935,8.46774194 L18.5483871,8.46774194 C18.3258065,8.46774194 18.1451613,8.64798387 18.1451613,8.87096774 L18.1451613,12.0967742 L16.9354839,12.0967742 C16.7129032,12.0967742 16.5322581,12.2770161 16.5322581,12.5 L16.5322581,23.7903226 C16.5322581,24.0133065 16.7129032,24.1935484 16.9354839,24.1935484 L23.3870968,24.1935484 C23.6096774,24.1935484 23.7903226,24.0133065 23.7903226,23.7903226 L23.7903226,12.5 C23.7903226,12.2770161 23.6096774,12.0967742 23.3870968,12.0967742 Z M18.9516129,9.27419355 L21.3709677,9.27419355 L21.3709677,12.0967742 L18.9516129,12.0967742 L18.9516129,9.27419355 Z M18.5483871,12.9032258 L21.7741935,12.9032258 L22.983871,12.9032258 L22.983871,14.1129032 L17.3387097,14.1129032 L17.3387097,12.9032258 L18.5483871,12.9032258 Z M22.983871,14.9193548 L22.983871,21.3709677 L17.3387097,21.3709677 L17.3387097,14.9193548 L22.983871,14.9193548 Z M17.3387097,23.3870968 L17.3387097,22.1774194 L22.983871,22.1774194 L22.983871,23.3870968 L17.3387097,23.3870968 Z" id="Shape"></path>
                                <path d="M9.67741935,17.7419355 C9.01048387,17.7419355 8.46774194,18.2846774 8.46774194,18.9516129 C8.46774194,19.6185484 9.01048387,20.1612903 9.67741935,20.1612903 C10.3443548,20.1612903 10.8870968,19.6185484 10.8870968,18.9516129 C10.8870968,18.2846774 10.3443548,17.7419355 9.67741935,17.7419355 Z M9.67741935,19.3548387 C9.45524194,19.3548387 9.27419355,19.1741935 9.27419355,18.9516129 C9.27419355,18.7290323 9.45524194,18.5483871 9.67741935,18.5483871 C9.89959677,18.5483871 10.0806452,18.7290323 10.0806452,18.9516129 C10.0806452,19.1741935 9.89959677,19.3548387 9.67741935,19.3548387 Z" id="Shape"></path>
                                <path d="M6.0483871,18.5483871 C6.93790323,18.5483871 7.66129032,17.825 7.66129032,16.9354839 C7.66129032,16.0459677 6.93790323,15.3225806 6.0483871,15.3225806 C5.15887097,15.3225806 4.43548387,16.0459677 4.43548387,16.9354839 C4.43548387,17.825 5.15887097,18.5483871 6.0483871,18.5483871 Z M6.0483871,16.1290323 C6.49314516,16.1290323 6.85483871,16.4907258 6.85483871,16.9354839 C6.85483871,17.3802419 6.49314516,17.7419355 6.0483871,17.7419355 C5.60362903,17.7419355 5.24193548,17.3802419 5.24193548,16.9354839 C5.24193548,16.4907258 5.60362903,16.1290323 6.0483871,16.1290323 Z" id="Shape"></path>
                                <path d="M9.27419355,15.7258065 C10.1637097,15.7258065 10.8870968,15.0024194 10.8870968,14.1129032 C10.8870968,13.2233871 10.1637097,12.5 9.27419355,12.5 C8.38467742,12.5 7.66129032,13.2233871 7.66129032,14.1129032 C7.66129032,15.0024194 8.38467742,15.7258065 9.27419355,15.7258065 Z M9.27419355,13.3064516 C9.71895161,13.3064516 10.0806452,13.6681452 10.0806452,14.1129032 C10.0806452,14.5576613 9.71895161,14.9193548 9.27419355,14.9193548 C8.82943548,14.9193548 8.46774194,14.5576613 8.46774194,14.1129032 C8.46774194,13.6681452 8.82943548,13.3064516 9.27419355,13.3064516 Z" id="Shape"></path>
                                <path d="M20.1612903,18.9516129 C21.0508065,18.9516129 21.7741935,18.2282258 21.7741935,17.3387097 C21.7741935,16.4491935 21.0508065,15.7258065 20.1612903,15.7258065 C19.2717742,15.7258065 18.5483871,16.4491935 18.5483871,17.3387097 C18.5483871,18.2282258 19.2717742,18.9516129 20.1612903,18.9516129 Z M20.1612903,16.5322581 C20.6060484,16.5322581 20.9677419,16.8939516 20.9677419,17.3387097 C20.9677419,17.7834677 20.6060484,18.1451613 20.1612903,18.1451613 C19.7165323,18.1451613 19.3548387,17.7834677 19.3548387,17.3387097 C19.3548387,16.8939516 19.7165323,16.5322581 20.1612903,16.5322581 Z" id="Shape"></path>
                            </g>
                        </g>
                    </g>
                </g>
            </g>
        </g>
    </g>
</svg>