<svg xmlns="http://www.w3.org/2000/svg" width="14" height="15" viewBox="0 0 14 15">
    <g fill="#FFF" fill-rule="nonzero" stroke="#FFF" stroke-width=".4">
        <path d="M6.106 1.262a.189.189 0 0 1 .174-.117h.015l4.32-.101c.073 0 .146.043.175.101a489.706 489.706 0 0 0 2.08 3.797c.015.03.03.073.03.117a.165.165 0 0 1-.044.116l-5.034 8.772a.195.195 0 0 1-.276.072l-6.43-3.71a.195.195 0 0 1-.072-.275l5.062-8.772zm4.408.189l-4.117.102-4.902 8.51 6.08 3.505 4.917-8.51-1.978-3.607z"/>
        <path d="M9.583 3.051c.363.204.61.553.712.931.102.364.059.786-.145 1.135 0 .014-.015.029-.015.029-.218.349-.552.596-.916.698a1.524 1.524 0 0 1-1.15-.145c-.014 0-.014-.015-.028-.015a1.606 1.606 0 0 1-.699-.916 1.51 1.51 0 0 1 .16-1.164c.204-.364.553-.611.931-.713a1.61 1.61 0 0 1 1.15.16zm.32 1.033a1.106 1.106 0 0 0-.524-.684 1.083 1.083 0 0 0-.844-.116 1.106 1.106 0 0 0-.683.524c-.16.261-.19.567-.117.843.073.277.247.524.51.67h.014c.262.16.567.189.844.116.276-.073.523-.248.683-.524.16-.233.19-.553.117-.83z"/>
    </g>
</svg>
