<?xml version="1.0" encoding="UTF-8"?>
<svg width="28px" height="27px" viewBox="0 0 28 27" version="1.1" xmlns="http://www.w3.org/2000/svg" xmlns:xlink="http://www.w3.org/1999/xlink">
    <!-- Generator: Sketch 55.2 (78181) - https://sketchapp.com -->
    <title>noun_hairstyle_1105146</title>
    <desc>Created with Sketch.</desc>
    <g id="Booking-flow" stroke="none" stroke-width="1" fill="none" fill-rule="evenodd">
        <g id="booking-flow-step-5-a-a-mobile" transform="translate(-56.000000, -2005.000000)">
            <g id="Group-9" transform="translate(0.000000, 452.000000)">
                <g id="Group-19" transform="translate(0.000000, 1518.000000)">
                    <g id="Group-17" transform="translate(57.000000, 36.000000)">
                        <g id="Group-10">
                            <g id="noun_hairstyle_1105146">
                                <path d="M19.9846024,13.1732289 C19.9846024,11.4049157 18.2679759,9.97146988 16.1500723,9.97146988 C14.8895422,9.97146988 13.7712289,10.479253 13.0720482,11.2633253 L13.072988,11.2576867 C12.3738072,10.4770602 11.2576867,9.97146988 10.0002892,9.97146988 C7.88238554,9.97146988 6.16575904,11.4049157 6.16575904,13.1732289" id="Path" stroke="#BC5940" stroke-width="1.2" stroke-linecap="round" stroke-linejoin="round"></path>
                                <path d="M19.9846024,18.8343373 C19.9846024,22.2945301 17.1797349,25.0993976 13.7195422,25.0993976 L12.4308193,25.0993976 C8.97062651,25.0993976 6.16575904,22.2945301 6.16575904,18.8343373 L6.16575904,13.4297831 C6.16575904,9.96959036 8.97062651,7.16472289 12.4308193,7.16472289 L13.7195422,7.16472289 C17.1797349,7.16472289 19.9846024,9.96959036 19.9846024,13.4297831 L19.9846024,18.8343373 Z" id="Path" stroke="#BC5940" stroke-width="1.2" stroke-linecap="round" stroke-linejoin="round"></path>
                                <g id="Group" transform="translate(9.084337, 15.036145)" fill="#BC5940" fill-rule="nonzero">
                                    <circle id="Oval" cx="0.950096386" cy="0.991759036" r="1"></circle>
                                    <circle id="Oval" cx="7.07481928" cy="0.991759036" r="1"></circle>
                                </g>
                                <path d="M19.6444096,21.4888434 C19.9178795,21.8036627 20.3163373,22.0066506 20.7658554,22.0066506 C21.5897108,22.0066506 22.2575663,21.3387952 22.2575663,20.5149398 C22.2575663,20.066988 22.0558313,19.6697831 21.7435181,19.3963133 C21.7623133,19.3718795 21.7823614,19.3480723 21.8008434,19.3233253 C22.0470602,19.4818313 22.3383855,19.5761205 22.6528916,19.5761205 C23.5253012,19.5761205 24.2326265,18.8687952 24.2326265,17.9963855 C24.2326265,17.3564096 23.8507711,16.8082169 23.3035181,16.5598072 C23.3041446,16.5579277 23.3050843,16.5560482 23.3057108,16.5541687 C23.4353976,16.593012 23.5697831,16.6202651 23.712,16.6202651 C24.5151807,16.6202651 25.1664337,15.969012 25.1664337,15.1658313 C25.1664337,14.4368916 24.6282651,13.8385783 23.9287711,13.7333253 C23.9328434,13.6857108 23.9362892,13.6380964 23.9397349,13.5904819 C25.038,13.5704337 25.9226265,12.6751566 25.9226265,11.5721928 C25.9226265,10.4563855 25.0182651,9.5520241 23.9024578,9.5520241 C23.7621205,9.5520241 23.6249157,9.56643373 23.4924096,9.59368675 C23.4839518,9.56612048 23.475494,9.53886747 23.4667229,9.51161446 C24.2113253,9.19491566 24.7338313,8.45657831 24.7338313,7.59607229 C24.7338313,6.44674699 23.8022169,5.51513253 22.6528916,5.51513253 C22.2215422,5.51513253 21.8205783,5.64638554 21.4882169,5.8713012 C21.4628434,5.84060241 21.4359036,5.81115663 21.4102169,5.78077108 C21.707494,5.49101205 21.893253,5.08785542 21.893253,4.63990361 C21.893253,3.7593494 21.1793494,3.04513253 20.2987952,3.04513253 C19.7819277,3.04513253 19.3270843,3.29510843 19.035759,3.67633735 C18.9972289,3.65096386 18.9583855,3.62653012 18.9195422,3.60178313 C19.0667711,3.3120241 19.1516627,2.98498795 19.1516627,2.63759036 C19.1516627,1.46038554 18.197494,0.506216867 17.0202892,0.506216867 C16.0410602,0.506216867 15.2181446,1.16749398 14.9684819,2.06715663 C14.9559518,2.06496386 14.9434217,2.06277108 14.9312048,2.06057831 C14.9355904,2.00763855 14.9393494,1.95407229 14.9393494,1.89987952 C14.9393494,0.87053012 14.1048434,0.0357108434 13.0751807,0.0357108434 C12.0458313,0.0357108434 11.211012,0.870216867 11.211012,1.89987952 C11.211012,1.95407229 11.2144578,2.0073253 11.2191566,2.06057831 C11.1906506,2.06559036 11.1621446,2.07060241 11.1336386,2.07592771 C10.8867952,1.17187952 10.062,0.50653012 9.07963855,0.50653012 C7.90243373,0.50653012 6.94826506,1.4606988 6.94826506,2.63790361 C6.94826506,2.99501205 7.03722892,3.33113253 7.19228916,3.62653012 C7.1553253,3.65033735 7.11804819,3.67351807 7.08139759,3.69763855 C6.79101205,3.30387952 6.32771084,3.04544578 5.80081928,3.04544578 C4.92026506,3.04544578 4.20604819,3.7593494 4.20604819,4.64021687 C4.20604819,5.10163855 4.40527711,5.51419277 4.71853012,5.80520482 C4.69346988,5.83527711 4.66778313,5.86503614 4.64303614,5.89542169 C4.30440964,5.65672289 3.89248193,5.51544578 3.44672289,5.51544578 C2.29771084,5.51544578 1.36578313,6.44706024 1.36578313,7.59638554 C1.36578313,8.47349398 1.90927711,9.22248193 2.67737349,9.52853012 C2.66922892,9.55421687 2.66171084,9.58021687 2.65387952,9.60590361 C2.50696386,9.57175904 2.35440964,9.5520241 2.19715663,9.5520241 C1.0813494,9.5520241 0.176674699,10.4566988 0.176674699,11.5721928 C0.176674699,12.6876867 1.0813494,13.5923614 2.19715663,13.5923614 C2.20154217,13.5923614 2.20561446,13.5917349 2.21,13.5917349 C2.21313253,13.6374699 2.21657831,13.6828916 2.22033735,13.7283133 C1.49672289,13.8119518 0.93286747,14.4199759 0.93286747,15.1658313 C0.93286747,15.969012 1.58412048,16.6202651 2.3873012,16.6202651 C2.53828916,16.6202651 2.68081928,16.5908193 2.81771084,16.5482169 C2.25855422,16.7916145 1.8666747,17.3476386 1.8666747,17.9963855 C1.8666747,18.8687952 2.574,19.5761205 3.44640964,19.5761205 C3.77563855,19.5761205 4.08074699,19.475253 4.33385542,19.3029639 C4.35108434,19.3258313 4.36925301,19.3480723 4.38648193,19.3709398 C4.05662651,19.6444096 3.84173494,20.0525783 3.84173494,20.5146265 C3.84173494,21.3384819 4.50959036,22.0063373 5.33344578,22.0063373 C5.79424096,22.0063373 6.20115663,21.793012 6.47462651,21.4644096" id="Path" stroke="#BC5940" stroke-width="1.2" stroke-linecap="round" stroke-linejoin="round"></path>
                                <path d="M10.0344337,20.6839844 C10.9016185,21.5613281 11.8901406,22 13,22 C14.1098594,22 15.1629116,21.5613281 16.1591566,20.6839844 L10.0344337,20.6839844 Z" id="Path-3" stroke="#BC5940" fill="#BC5940" stroke-linecap="round" stroke-linejoin="round"></path>
                            </g>
                        </g>
                    </g>
                </g>
            </g>
        </g>
    </g>
</svg>