<?xml version="1.0" encoding="UTF-8"?>
<svg width="28px" height="28px" viewBox="0 0 28 28" version="1.1" xmlns="http://www.w3.org/2000/svg" xmlns:xlink="http://www.w3.org/1999/xlink">
    <!-- Generator: Sketch 55.2 (78181) - https://sketchapp.com -->
    <title>noun_drinks_2776386</title>
    <desc>Created with Sketch.</desc>
    <g id="Booking-flow" stroke="none" stroke-width="1" fill="none" fill-rule="evenodd">
        <g id="booking-flow-step-4-mobile" transform="translate(-88.000000, -2489.000000)" fill="#BC5940" fill-rule="nonzero" stroke="#BC5940" stroke-width="0.6">
            <g id="Group-5-Copy-2" transform="translate(20.000000, 2490.000000)">
                <g id="Group-6" transform="translate(69.000000, 0.000000)">
                    <g id="noun_drinks_2776386">
                        <path d="M12.7542596,4.98586544 L5.51981542,3.01218347 C5.37487501,2.97263814 5.22009686,3.03164563 5.14129278,3.15602988 C4.97199356,3.42390047 1.0132597,9.75849398 2.5680485,13.6053787 C3.0375039,14.7668927 3.96246618,15.5755664 5.30921043,16.0221593 L2.84013984,24.5241788 L0.428277821,23.8662732 C0.249139878,23.8184334 0.0632310511,23.9188816 0.0127275758,24.0923451 C-0.0377755962,24.2658434 0.0665328038,24.4460337 0.245670747,24.4951142 L5.71805532,25.9878844 C5.74864683,25.9961782 5.77923838,26 5.80952721,26 C5.95659014,26 6.09182714,25.9059523 6.13360459,25.7617801 C6.1841087,25.5883141 6.07979936,25.4081239 5.90066239,25.3590433 L3.48856325,24.701073 L5.95598356,16.2047026 C6.36038096,16.2939818 6.75106567,16.3405809 7.12625253,16.3405809 C8.05027337,16.3405809 8.88352596,16.0698358 9.61510071,15.529914 C13.0006767,13.0316909 13.0014852,5.61313991 12.9999369,5.29870259 C12.9990265,5.1529628 12.8988613,5.02541139 12.7542596,4.98586544 Z M9.20645753,15.0107618 C8.26579498,15.7043592 7.16014768,15.8647615 5.82499164,15.500264 C4.48852275,15.1357664 3.62845012,14.4383485 3.19565058,13.3677791 C2.46212295,11.5537483 3.12927908,9.02871404 3.96068034,6.98619477 L11.9520336,9.2310466 C11.5675475,11.3832546 10.7880982,13.8439573 9.20645753,15.0107618 Z M12.0584642,8.58065254 L4.2182185,6.37825226 C4.77065433,5.12585889 5.3393309,4.12713083 5.58743488,3.70930742 L12.3225711,5.54681713 C12.3112509,6.03569891 12.2629034,7.20384194 12.0584642,8.58065254 Z" id="Shape"></path>
                        <path d="M6.30691523,13.9798228 C6.42180261,13.9927215 6.54042779,14 6.66140595,14 C7.8387636,14 9.25575889,13.3143225 9.98976089,10.4198764 C10.0357164,10.2383845 9.92266189,10.0545578 9.73714633,10.0096006 C9.5515951,9.96596208 9.36389879,10.0750398 9.3179446,10.2565652 C8.76523661,12.436557 7.77914016,13.4631103 6.38529486,13.3073824 C6.19590292,13.2835827 6.02405597,13.4194381 6.00225504,13.6052627 C5.98062707,13.7910537 6.11700383,13.958664 6.30691523,13.9798228 Z" id="Path"></path>
                        <path d="M21.2241499,9.0149232 C21.0529968,9.06914982 20.9579651,9.25246331 21.0118971,9.42461189 C21.65947,11.4902566 21.3823046,12.8203634 20.1882335,13.3773228 C20.0254981,13.4532266 19.9547356,13.6473787 20.0302399,13.8109416 C20.0852774,13.9301687 20.2026919,14 20.3251431,14 C20.3709845,14 20.4174779,13.9904342 20.461728,13.9697035 C21.5188895,13.4765042 22.5800466,12.2535131 21.6315299,9.22823928 C21.577598,9.05638462 21.3945222,8.96138276 21.2241499,9.0149232 Z" id="Path"></path>
                        <path d="M25.987272,24.0923652 C25.9369401,23.9189035 25.7513641,23.8184564 25.5717233,23.8662957 L23.1598603,24.5241944 L20.6907894,16.0222648 C22.0375338,15.5756767 22.9624963,14.7670115 23.4319498,13.6055097 C24.986741,9.75866574 21.0280063,3.42413926 20.8587064,3.1562715 C20.7797679,3.0318886 20.6252918,2.97226074 20.4801824,3.01242661 L13.2457409,4.98608774 C13.1011353,5.02563326 13.0009714,5.15318333 13.0000633,5.29892164 C12.9985115,5.61335564 12.9993211,13.0318281 16.3848977,15.5300248 C17.1164726,16.0699409 17.9495569,16.3406831 18.8737456,16.3406831 C19.2487969,16.3406831 19.6396514,16.2940521 20.0440161,16.2048063 L22.5114368,24.7010867 L20.0993372,25.3590501 C19.9202002,25.4081301 19.8158915,25.5883185 19.8663956,25.7617826 C19.9081705,25.9059533 20.0434095,26 20.1904724,26 C20.22076,26 20.2513509,25.9961782 20.2819443,25.9878845 L25.754333,24.4951301 C25.9334674,24.44605 26.0377762,24.2658617 25.987272,24.0923652 Z M13.6774269,5.54703346 L20.4125668,3.70954319 C20.6606354,4.12736221 21.229244,5.12594889 21.7816818,6.37823121 L13.9414991,8.58054281 C13.7370933,7.20387759 13.6887471,6.0359101 13.6774269,5.54703346 Z M16.7935409,15.010878 C15.2118319,13.8440211 14.4323503,11.3831812 14.0479323,9.23093001 L22.0392174,6.98613495 C22.8706875,9.02866563 23.5379113,11.5538027 22.8043494,13.3679128 C22.3715479,14.4384708 21.5114764,15.1358813 20.175006,15.500375 C18.8398543,15.8648687 17.7338656,15.7041417 16.7935409,15.010878 Z" id="Shape"></path>
                        <path d="M13.5,0 C13.223898,0 13,0.151584602 13,0.338963931 L13,2.66103607 C13,2.8484157 13.223898,3 13.5,3 C13.7760983,3 14,2.8484157 14,2.66103607 L14,0.338963931 C14,0.151584602 13.7760983,0 13.5,0 Z" id="Path"></path>
                        <path d="M10.5011683,2.91438714 C10.5582678,2.97145251 10.6330179,3 10.7077958,3 C10.7825469,3 10.8573237,2.97145254 10.9143942,2.91438714 C11.0285353,2.80025582 11.0285353,2.61535466 10.9143942,2.50122333 L9.49883199,1.0855985 C9.38466197,0.971467168 9.19974601,0.971467168 9.08560494,1.0855985 C8.97146502,1.19975881 8.97146502,1.38465968 9.08560494,1.498791 L10.5011683,2.91438714 Z" id="Path"></path>
                        <path d="M15.2922043,3 C15.3669822,3 15.4417323,2.97145254 15.4988318,2.91438714 L16.9143942,1.498791 C17.0285353,1.38465968 17.0285353,1.19975881 16.9143942,1.0855985 C16.8002543,0.971467168 16.6153383,0.971467168 16.5011705,1.0855985 L15.0856058,2.50122333 C14.9714647,2.61535466 14.9714647,2.80025582 15.0856058,2.91438714 C15.1426752,2.97145251 15.2174554,3 15.2922043,3 Z" id="Path"></path>
                    </g>
                </g>
            </g>
        </g>
    </g>
</svg>