<svg xmlns="http://www.w3.org/2000/svg" width="14" height="14" viewBox="0 0 14 14">
    <g fill="#FFF" fill-rule="nonzero" stroke="#FFF" stroke-width=".4">
        <path d="M6.964 12.928c3.284 0 5.964-2.68 5.964-5.964C12.928 3.68 10.248 1 6.964 1 3.68 1 1 3.68 1 6.964c0 3.284 2.68 5.964 5.964 5.964zm0-11.367a5.414 5.414 0 0 1 5.403 5.403 5.414 5.414 0 0 1-5.403 5.403 5.414 5.414 0 0 1-5.403-5.403 5.414 5.414 0 0 1 5.403-5.403z"/>
        <path d="M8.484 9.946l.468-.265-1.468-2.717V2.988h-.52V7.03l.026.133z"/>
    </g>
</svg>
