<?xml version="1.0" encoding="UTF-8"?>
<svg width="26px" height="26px" viewBox="0 0 26 26" version="1.1" xmlns="http://www.w3.org/2000/svg" xmlns:xlink="http://www.w3.org/1999/xlink">
    <!-- Generator: Sketch 55.2 (78181) - https://sketchapp.com -->
    <title>noun_shampoo_2356751</title>
    <desc>Created with Sketch.</desc>
    <g id="Booking-flow" stroke="none" stroke-width="1" fill="none" fill-rule="evenodd">
        <g id="booking-flow-step-4-default-mobile" transform="translate(-85.000000, -1189.000000)" fill="#BC5940" fill-rule="nonzero" stroke="#BC5940" stroke-width="0.5">
            <g id="Group-5-Copy" transform="translate(20.000000, 1190.000000)">
                <g id="Group-7" transform="translate(66.000000, 0.000000)">
                    <g id="noun_shampoo_2356751">
                        <path d="M6,8 C7.1045695,8 8,7.1045695 8,6 C8,4.8954305 7.1045695,4 6,4 C4.8954305,4 4,4.8954305 4,6 C4,7.1045695 4.8954305,8 6,8 L6,8 Z M6,4.8 C6.6627417,4.8 7.2,5.3372583 7.2,6 C7.2,6.6627417 6.6627417,7.2 6,7.2 C5.3372583,7.2 4.8,6.6627417 4.8,6 C4.8,5.3372583 5.3372583,4.8 6,4.8 Z" id="Shape"></path>
                        <path d="M6.63809951,17.000059 C5.9078946,16.9934119 5.28722511,17.5496127 5.19049756,18.297299 C5.14014252,18.6971225 4.88590384,19.0382553 4.52460066,19.1907871 C4.46119941,19.2163567 4.39582636,19.2363658 4.32917439,19.2506022 C4.12930227,19.2702167 3.9826666,19.4534932 4.00165445,19.6599618 C4.0206423,19.8664303 4.19806337,20.0179055 4.39793549,19.9982909 L4.47031559,19.9982909 C5.23305578,19.8447168 5.81570701,19.2052187 5.91791754,18.4094523 C5.96023629,18.0318359 6.27010658,17.7471264 6.63809951,17.7477477 C6.83797163,17.7477477 7,17.5803719 7,17.3739033 C7,17.1674348 6.83797163,17.000059 6.63809951,17.000059 Z" id="Path"></path>
                        <path d="M2.66666667,19 C2.29847683,19 2,19.2984768 2,19.6666667 C2,19.8507616 2.14923842,20 2.33333333,20 C2.51742825,20 2.66666667,19.8507616 2.66666667,19.6666667 C2.85076158,19.6666667 3,19.5174282 3,19.3333333 C3,19.1492384 2.85076158,19 2.66666667,19 Z" id="Path"></path>
                        <path d="M21.4159102,7.2 L20.7998888,7.2 L20.7998888,5 C20.7998888,4.44771525 20.352158,4 19.7998541,4 L17.5997777,4 L17.5997777,2.4 L17.9997916,2.4 C18.6625563,2.4 19.1998333,1.8627417 19.1998333,1.2 C19.1998333,0.5372583 18.6625563,0 17.9997916,0 L9.99951366,0 C9.33674894,0 8.79947197,0.5372583 8.79947197,1.2 C8.79947197,1.8627417 9.33674894,2.4 9.99951366,2.4 L15.1996943,2.4 L15.1996943,4 L12.9996179,4 C12.4473139,4 11.9995831,4.44771525 11.9995831,5 L11.9995831,7.2 L11.3835617,7.2 C9.95732175,7.20220261 8.80167467,8.35780956 8.79947197,9.784 L8.79947197,16.304 C8.04317511,15.4430398 6.8842127,15.0522041 5.76095786,15.2793249 C4.63770302,15.5064458 3.72164642,16.316848 3.359283,17.404 C2.35345178,16.9654882 1.178299,17.2649264 0.504985287,18.1312975 C-0.168328429,18.9976685 -0.168328429,20.2103315 0.504985287,21.0767025 C1.178299,21.9430736 2.35345178,22.2425118 3.359283,21.804 C3.74698639,22.9648628 4.76289058,23.8029177 5.97632278,23.9628878 C7.18975499,24.1228579 8.38815369,23.5767205 9.06348115,22.556 C9.49896572,23.4396622 10.3983919,23.999458 11.3835617,24 L21.4159102,24 C22.8421502,23.9977974 23.9977973,22.8421904 24,21.416 L24,9.784 C23.9977973,8.35780956 22.8421502,7.20220261 21.4159102,7.2 Z M9.59949977,1.2 C9.59949977,0.9790861 9.77859209,0.8 9.99951366,0.8 L17.9997916,0.8 C18.2207131,0.8 18.3998055,0.9790861 18.3998055,1.2 C18.3998055,1.4209139 18.2207131,1.6 17.9997916,1.6 L9.99951366,1.6 C9.77859209,1.6 9.59949977,1.4209139 9.59949977,1.2 Z M15.9997221,2.4 L16.7997499,2.4 L16.7997499,4 L15.9997221,4 L15.9997221,2.4 Z M12.7996109,5 C12.801739,4.89043662 12.8900507,4.80212804 12.9996179,4.8 L19.7998541,4.8 C19.9094213,4.80212804 19.9977329,4.89043662 19.999861,5 L19.999861,7.2 L12.7996109,7.2 L12.7996109,5 Z M11.3835617,8 L21.4159102,8 C22.4012205,8 23.1999722,8.79872401 23.1999722,9.784 L23.1999722,12.984 L9.59949977,12.984 L9.59949977,9.784 C9.59949977,9.31085378 9.7874629,8.8570864 10.1220394,8.5225215 C10.4566159,8.1879566 10.9103991,8 11.3835617,8 Z M23.1999722,17.4 L11.3555608,17.4 C11.0853226,17.2801306 10.794908,17.2122791 10.499531,17.2 L10.3995276,17.2 C10.280172,17.2007205 10.1610859,17.2114245 10.0435152,17.232 L10.0435152,17.232 L9.98751324,17.232 C9.86486387,17.2549503 9.74441581,17.2884069 9.62750074,17.332 L9.62750074,17.332 L9.62750074,13.8 L23.1999722,13.8 L23.1999722,17.4 Z M6.3993886,23.2000008 C5.19718453,23.1984442 4.18159539,22.3076975 4.02330606,21.116 C4.00410999,20.9747054 3.9111457,20.8543132 3.77929759,20.8 C3.73120699,20.7795036 3.67956503,20.768632 3.62729231,20.768 C3.53753969,20.7673841 3.45018782,20.7969699 3.37928369,20.852 C3.10170665,21.0761052 2.75600492,21.1988603 2.39924965,21.2 C1.51556335,21.2 0.799194067,20.4836556 0.799194067,19.6 C0.799194067,18.7163444 1.51556335,18 2.39924965,18 C2.75600492,18.0011397 3.10170665,18.1238948 3.37928369,18.348 C3.49254126,18.437025 3.64492176,18.458276 3.77821642,18.4036354 C3.91151107,18.3489948 4.00512807,18.2269035 4.02330606,18.084 C4.19184323,16.90126 5.20466027,16.0225617 6.3993886,16.0225617 C7.59411693,16.0225617 8.60693397,16.90126 8.77547114,18.084 C8.79364913,18.2269035 8.88726613,18.3489948 9.02056079,18.4036354 C9.15385544,18.458276 9.30623595,18.437025 9.41949351,18.348 L9.43949421,18.348 L9.43949421,18.348 C9.529829,18.2816684 9.6262663,18.2240759 9.72750421,18.176 L9.72750421,18.176 C9.8308186,18.1262758 9.93954763,18.0886918 10.0515155,18.064 L10.0795164,18.064 C10.1831182,18.0294726 10.2906149,18.0079741 10.3995276,18 L10.4195283,18 C10.6468018,18.0048097 10.8704416,18.0579905 11.075551,18.156 L11.075551,18.156 C11.7480862,18.476872 12.1100833,19.2195074 11.9485357,19.9469242 C11.7869882,20.674341 11.1446671,21.1939489 10.3995276,21.2 C10.3142948,21.2059434 10.2287515,21.2059434 10.1435187,21.2 C9.88731571,21.1536437 9.64592184,21.046666 9.43949421,20.888 L9.43949421,20.888 L9.41949351,20.888 C9.30529578,20.7997867 9.15243669,20.7799157 9.01947962,20.836 C8.88763151,20.8903132 8.79466722,21.0107054 8.77547114,21.152 C8.60089201,22.329402 7.58970317,23.2009689 6.3993886,23.2000008 Z M21.4159102,23.2 L11.3835617,23.2 C10.5773741,23.1978749 9.87184384,22.6576965 9.65950185,21.88 C9.76809515,21.9146492 9.8790561,21.9413858 9.99151338,21.96 L10.0635159,21.96 C10.1743767,21.9816228 10.2866887,21.9949928 10.3995276,22 C11.725057,22 12.7996109,20.9254834 12.7996109,19.6 C12.8005213,19.0966895 12.6407644,18.606225 12.3435951,18.2 L23.2000441,18.2 L23.2000441,21.4 C23.2042408,21.8759123 23.0181638,22.333801 22.6831235,22.6718344 C22.3480832,23.0098678 21.8918583,23.2 21.4159102,23.2 Z" id="Shape"></path>
                        <path d="M10.375,12 C10.5821068,12 10.75,11.8321068 10.75,11.625 L10.75,9.9225 C10.7519887,9.8280669 10.8280669,9.75198872 10.9225,9.75 L12.625,9.75 C12.8321068,9.75 13,9.58210678 13,9.375 C13,9.16789322 12.8321068,9 12.625,9 L10.9225,9 C10.413871,9.00205509 10.0020551,9.413871 10,9.9225 L10,11.625 C10,11.8321068 10.1678932,12 10.375,12 Z" id="Path"></path>
                        <path d="M21.625,19 C21.4178932,19 21.25,19.1678932 21.25,19.375 L21.25,21.0775 C21.2480113,21.1719331 21.1719331,21.2480113 21.0775,21.25 L19.375,21.25 C19.1678932,21.25 19,21.4178932 19,21.625 C19,21.8321068 19.1678932,22 19.375,22 L21.0775,22 C21.586129,21.9979449 21.9979449,21.586129 22,21.0775 L22,19.375 C22,19.1678932 21.8321068,19 21.625,19 Z" id="Path"></path>
                    </g>
                </g>
            </g>
        </g>
    </g>
</svg>