<?xml version="1.0" encoding="UTF-8"?>
<svg width="28px" height="23px" viewBox="0 0 28 23" version="1.1" xmlns="http://www.w3.org/2000/svg" xmlns:xlink="http://www.w3.org/1999/xlink">
    <!-- Generator: Sketch 55.2 (78181) - https://sketchapp.com -->
    <title>noun_payment_511229</title>
    <desc>Created with Sketch.</desc>
    <g id="Booking-flow" stroke="none" stroke-width="1" fill="none" fill-rule="evenodd">
        <g id="booking-flow-step-5-b-a-mobile" transform="translate(-34.000000, -1438.000000)" fill="#BC5940" fill-rule="nonzero" stroke="#BC5940" stroke-width="0.2">
            <g id="noun_payment_511229" transform="translate(48.000000, 1449.530120) rotate(-15.000000) translate(-48.000000, -1449.530120) translate(36.000000, 1441.000000)">
                <path d="M22.8433735,0 L1.15662651,0 C0.520481928,0 0,0.520481928 0,1.15662651 L0,15.9036145 C0,16.539759 0.520481928,17.060241 1.15662651,17.060241 L22.8433735,17.060241 C23.4795181,17.060241 24,16.539759 24,15.9036145 L24,1.15662651 C24,0.520481928 23.4795181,0 22.8433735,0 Z M0.86746988,3.46987952 L23.1325301,3.46987952 L23.1325301,6.07228916 L0.86746988,6.07228916 L0.86746988,3.46987952 Z M1.15662651,0.86746988 L22.8433735,0.86746988 C23.0000964,0.86746988 23.1325301,0.999903614 23.1325301,1.15662651 L23.1325301,2.60240964 L0.86746988,2.60240964 L0.86746988,1.15662651 C0.86746988,0.999903614 0.999903614,0.86746988 1.15662651,0.86746988 Z M22.8433735,16.1927711 L1.15662651,16.1927711 C0.999903614,16.1927711 0.86746988,16.0603373 0.86746988,15.9036145 L0.86746988,6.93975904 L23.1325301,6.93975904 L23.1325301,15.9036145 C23.1325301,16.0603373 23.0000964,16.1927711 22.8433735,16.1927711 Z" id="Shape"></path>
                <path d="M19.5180723,9.8313253 C18.8405783,9.8313253 18.2275663,10.1054458 17.7831325,10.5484337 C17.3384096,10.1054458 16.7253976,9.8313253 16.0481928,9.8313253 C14.6906024,9.8313253 13.5903614,10.9318554 13.5903614,12.2891566 C13.5903614,13.6461687 14.6906024,14.746988 16.0481928,14.746988 C16.7253976,14.746988 17.3384096,14.4728675 17.7831325,14.0298795 C18.2275663,14.4728675 18.8405783,14.746988 19.5180723,14.746988 C20.8750843,14.746988 21.9759036,13.6461687 21.9759036,12.2891566 C21.9759036,10.9318554 20.8750843,9.8313253 19.5180723,9.8313253 Z M19.5180723,13.8795181 C19.0944578,13.8795181 18.6957108,13.7146988 18.3955663,13.4154217 C18.2261205,13.2468434 18.0046265,13.1624096 17.7831325,13.1624096 C17.5616386,13.1624096 17.3401446,13.2468434 17.170988,13.4154217 C16.8705542,13.7146988 16.4715181,13.8795181 16.0481928,13.8795181 C15.1711807,13.8795181 14.4578313,13.1661687 14.4578313,12.2891566 C14.4578313,11.4121446 15.1711807,10.6987952 16.0481928,10.6987952 C16.4715181,10.6987952 16.8705542,10.8636145 17.170988,11.1628916 C17.3401446,11.331759 17.5619277,11.4159036 17.7831325,11.4159036 C18.0049157,11.4159036 18.2261205,11.3314699 18.3955663,11.1628916 C18.6957108,10.8636145 19.0944578,10.6987952 19.5180723,10.6987952 C20.3950843,10.6987952 21.1084337,11.4121446 21.1084337,12.2891566 C21.1084337,13.1661687 20.3950843,13.8795181 19.5180723,13.8795181 Z" id="Shape"></path>
                <path d="M9.54216867,10.6987952 L2.60240964,10.6987952 C2.36298795,10.6987952 2.1686747,10.8931084 2.1686747,11.1325301 C2.1686747,11.3719518 2.36298795,11.5662651 2.60240964,11.5662651 L9.54216867,11.5662651 C9.78159036,11.5662651 9.97590361,11.3719518 9.97590361,11.1325301 C9.97590361,10.8931084 9.78159036,10.6987952 9.54216867,10.6987952 Z" id="Path"></path>
                <path d="M5.78371084,12.7228916 L2.60240964,12.7228916 C2.36298795,12.7228916 2.1686747,12.9172048 2.1686747,13.1566265 C2.1686747,13.3960482 2.36298795,13.5903614 2.60240964,13.5903614 L5.78371084,13.5903614 C6.02313253,13.5903614 6.21744578,13.3960482 6.21744578,13.1566265 C6.21744578,12.9172048 6.02313253,12.7228916 5.78371084,12.7228916 Z" id="Path"></path>
            </g>
        </g>
    </g>
</svg>