<?xml version="1.0" encoding="UTF-8"?>
<svg width="21px" height="21px" viewBox="0 0 21 21" version="1.1" xmlns="http://www.w3.org/2000/svg" xmlns:xlink="http://www.w3.org/1999/xlink">
    <!-- Generator: Sketch 55.2 (78181) - https://sketchapp.com -->
    <title>noun_Calendar_2804231</title>
    <desc>Created with Sketch.</desc>
    <g id="Booking-flow" stroke="none" stroke-width="1" fill="none" fill-rule="evenodd">
        <g id="booking-flow-step-5-a-a-mobile" transform="translate(-105.000000, -1552.000000)" stroke="#BC5940">
            <g id="Group-14" transform="translate(20.000000, 1553.000000)">
                <g id="Group-12" transform="translate(86.000000, 0.000000)">
                    <g id="noun_Calendar_2804231">
                        <path d="M18.1730653,3.02940258 C18.1730653,3.18618041 18.1730653,3.34295825 18.1730653,3.49973608 C18.1730653,3.9205608 18.1730653,4.33932264 18.1730653,4.76014736 C18.1730653,5.3748815 18.1730653,5.98755278 18.1730653,6.60228692 C18.1730653,7.33666731 18.1730653,8.06898483 18.1730653,8.80336521 C18.1730653,9.57900292 18.1730653,10.3567035 18.1730653,11.1323412 C18.1730653,11.8852874 18.1730653,12.6402964 18.1730653,13.3932426 C18.1730653,14.0451084 18.1730653,14.6969741 18.1730653,15.3488398 C18.1730653,15.8315505 18.1730653,16.3142612 18.1730653,16.7969719 C18.1730653,17.0342016 18.1730653,17.2714312 18.1730653,17.5107237 C18.1730653,17.5231009 18.1730653,17.535478 18.1730653,17.5478552 C18.1730653,17.5808611 18.1689309,17.6159298 18.1689309,17.6489357 C18.1668637,17.7066959 18.1854683,17.5684839 18.1730653,17.6241813 C18.1689309,17.6386214 18.1689309,17.6509986 18.1647966,17.6654386 C18.1565279,17.7005073 18.146192,17.7376389 18.1358561,17.7727077 C18.1317217,17.7850849 18.1255202,17.7974621 18.1213859,17.8119021 C18.1069156,17.8634738 18.1606622,17.7438275 18.1296546,17.7892106 C18.1131172,17.8160279 18.1007141,17.8469709 18.0841767,17.8737881 C18.0697065,17.8964796 18.0552362,17.9191712 18.040766,17.9418627 C17.9973553,18.0078744 18.0552362,17.921234 18.0552362,17.9232969 C18.0573034,17.9253598 18.0221614,17.9604285 18.0200942,17.9645542 C17.9994225,17.9872458 17.9746163,18.0078744 17.9518774,18.0305659 C17.8795262,18.1007034 17.9994225,18.0037487 17.9415415,18.0408803 C17.9146682,18.0573832 17.8898621,18.075949 17.8609216,18.0924519 C17.8485186,18.0986405 17.8381827,18.106892 17.8257796,18.1130806 C17.8051079,18.1233949 17.7637643,18.1625894 17.8009735,18.1275207 C17.829914,18.1007034 17.8257796,18.1192692 17.7989063,18.1275207 C17.7823689,18.1337093 17.7637643,18.1398979 17.7472269,18.1460865 C17.7203536,18.1543379 17.6934803,18.1605265 17.666607,18.1667151 C17.6707414,18.1667151 17.6128605,18.1790923 17.6107933,18.1770295 C17.6087261,18.1749666 17.6996819,18.168778 17.6500696,18.1708409 C17.6169948,18.1729037 17.58392,18.1749666 17.548778,18.1749666 C17.5384421,18.1749666 17.5301734,18.1749666 17.5198375,18.1749666 C17.3089855,18.1749666 17.0960663,18.1749666 16.8852143,18.1749666 C16.4428386,18.1749666 16.0004628,18.1749666 15.5560198,18.1749666 C14.9441356,18.1749666 14.3343185,18.1749666 13.7224343,18.1749666 C12.9968554,18.1749666 12.2712764,18.1749666 11.5456975,18.1749666 C10.7705063,18.1749666 9.9953151,18.1749666 9.2221911,18.1749666 C8.45113427,18.1749666 7.68007744,18.1749666 6.90902061,18.1749666 C6.20411343,18.1749666 5.50127342,18.1749666 4.79636624,18.1749666 C4.22169118,18.1749666 3.64494894,18.1749666 3.07027388,18.1749666 C2.67751034,18.1749666 2.28474681,18.1749666 1.89198328,18.1749666 C1.74521375,18.1749666 1.59844422,18.1770295 1.45167469,18.1749666 C1.43720445,18.1749666 1.42273422,18.1749666 1.40826398,18.1749666 C1.39379375,18.1749666 1.37932351,18.1729037 1.36485327,18.1729037 C1.29043492,18.168778 1.38139069,18.1729037 1.38965939,18.1770295 C1.36692045,18.1646523 1.31937539,18.1625894 1.29456927,18.1564008 C1.25942727,18.1460865 1.22428527,18.1337093 1.18914327,18.1233949 C1.14366539,18.1110177 1.22841963,18.1357721 1.22428527,18.137835 C1.2222181,18.1398979 1.17260586,18.1110177 1.17467304,18.1130806 C1.14986692,18.1007034 1.12712798,18.0862633 1.10438904,18.0718233 C1.0899188,18.0615089 1.07544857,18.0511946 1.05891115,18.0408803 C1.03203786,18.0223145 1.0465081,18.014063 1.05684398,18.0408803 C1.06304551,18.0470689 1.07131421,18.0511946 1.07751574,18.0573832 C1.06717986,18.0491317 1.05684398,18.0408803 1.0465081,18.0305659 C1.03410504,18.0181888 1.0196348,18.0058116 1.00723174,17.9934344 C1.00516457,17.9913715 0.941082095,17.9294855 0.943149272,17.9232969 C0.945216448,17.921234 1.00309739,18.0078744 0.957619507,17.9418627 C0.949350801,17.9315484 0.943149272,17.9191712 0.934880566,17.9088568 C0.918343154,17.8820396 0.901805742,17.8552223 0.887335506,17.8263422 C0.881133977,17.8160279 0.876999624,17.7995249 0.868730918,17.7892106 C0.841857624,17.752079 0.899738565,17.8799767 0.872865271,17.7995249 C0.854260683,17.7417647 0.839790447,17.6840044 0.825320212,17.6262442 C0.810849976,17.5705468 0.831521741,17.7087588 0.829454565,17.6509986 C0.829454565,17.6365585 0.827387388,17.6221184 0.825320212,17.6076784 C0.823253035,17.5891126 0.823253035,17.5684839 0.823253035,17.5499181 C0.823253035,17.5065979 0.823253035,17.4632777 0.823253035,17.4199575 C0.823253035,17.1167162 0.823253035,16.8134749 0.823253035,16.5102335 C0.823253035,15.9821398 0.823253035,15.454046 0.823253035,14.9259522 C0.823253035,14.2410806 0.823253035,13.5562091 0.823253035,12.8713375 C0.823253035,12.1080769 0.823253035,11.3448164 0.823253035,10.5815559 C0.823253035,9.80591821 0.823253035,9.0302805 0.823253035,8.25464279 C0.823253035,7.54295393 0.823253035,6.83126507 0.823253035,6.11957622 C0.823253035,5.54816227 0.823253035,4.97468545 0.823253035,4.4032715 C0.823253035,4.03814417 0.823253035,3.67301685 0.823253035,3.30788952 C0.823253035,3.22743774 0.823253035,3.14492309 0.823253035,3.0644713 C0.823253035,3.05415697 0.823253035,3.04177977 0.823253035,3.03146544 C0.823253035,3.01289965 0.823253035,2.99227098 0.825320212,2.97370519 C0.825320212,2.97576805 0.827387388,2.9180078 0.829454565,2.91594493 C0.833588918,2.91388206 0.812917153,3.00258531 0.825320212,2.95513939 C0.831521741,2.92832213 0.854260683,2.76329283 0.883201153,2.75504136 C0.889402683,2.7529785 0.8439248,2.83136741 0.868730918,2.79217296 C0.8790668,2.77773289 0.88526833,2.7591671 0.893537036,2.74472703 C0.908007271,2.71790977 0.924544683,2.68902964 0.943149272,2.66427525 C0.951417977,2.65396092 0.959686683,2.64364659 0.965888213,2.63126939 C0.988627154,2.59207493 0.945216448,2.66633811 0.943149272,2.66221238 C0.939014919,2.65602378 1.00929892,2.59001206 1.01550045,2.58382346 C1.02790351,2.57144627 1.04237374,2.55906907 1.0547768,2.54669187 C1.07751574,2.52606321 1.06717986,2.51781174 1.0547768,2.54462901 C1.03823939,2.5817606 1.03823939,2.55494334 1.06717986,2.53637754 C1.07751574,2.52812608 1.0899188,2.52193748 1.10025468,2.51368601 C1.12712798,2.49718308 1.15606845,2.48274302 1.18294174,2.46624009 C1.18500892,2.46417722 1.21808374,2.44767429 1.22015092,2.44767429 C1.21808374,2.44561143 1.13746386,2.47861729 1.20981504,2.45386289 C1.26356163,2.43529709 1.3359128,2.43323423 1.38552504,2.40847983 C1.32971127,2.43529709 1.31730822,2.41466843 1.36071892,2.41260557 C1.37518916,2.41260557 1.38965939,2.4105427 1.40412963,2.4105427 C1.41859986,2.4105427 1.4330701,2.4105427 1.44754033,2.4105427 C1.45787622,2.4105427 1.47027928,2.4105427 1.48061516,2.4105427 C1.55710069,2.4105427 1.63151904,2.4105427 1.70800457,2.4105427 C2.04702151,2.4105427 2.38603846,2.4105427 2.72298823,2.4105427 C3.25838694,2.4105427 3.79585282,2.4105427 4.33125153,2.4105427 C5.0113526,2.4105427 5.68938648,2.4105427 6.36948755,2.4105427 C7.12607414,2.4105427 7.88266073,2.4105427 8.63924733,2.4105427 C9.42064004,2.4105427 10.2020328,2.4105427 10.9854926,2.4105427 C11.7296762,2.4105427 12.4738597,2.4105427 13.2180432,2.4105427 C13.8609351,2.4105427 14.5058942,2.4105427 15.1487861,2.4105427 C15.6387069,2.4105427 16.1286277,2.4105427 16.6185486,2.4105427 C16.8914159,2.4105427 17.162216,2.4105427 17.4350833,2.4105427 C17.4722925,2.4105427 17.5095016,2.4105427 17.5467108,2.4105427 C17.5632482,2.4105427 17.5735841,2.4105427 17.5901215,2.4105427 C17.6066589,2.4105427 17.6996819,2.42085703 17.6355994,2.41260557 C17.5673826,2.4043541 17.6748757,2.4229199 17.6914132,2.42704563 C17.7224208,2.43529709 17.7534285,2.44561143 17.7844361,2.45592576 C17.8733247,2.48480588 17.736891,2.42704563 17.7989063,2.46211436 C17.8257796,2.47861729 17.8547201,2.49099448 17.8815934,2.50749741 C17.8939965,2.51574888 17.9580789,2.54875474 17.9601461,2.56113194 C17.9601461,2.5693834 17.8981308,2.50130881 17.9291385,2.53844041 C17.9374072,2.54875474 17.9498102,2.5570062 17.9601461,2.56525767 C17.982885,2.58588633 18.0035568,2.61064073 18.0262957,2.63333225 C18.0965797,2.70553257 17.9994225,2.58588633 18.0366316,2.64364659 C18.0449003,2.65602378 18.1420576,2.79629869 18.1317217,2.80661302 C18.1275874,2.81073875 18.1048485,2.72616124 18.1172515,2.77154429 C18.1213859,2.78392149 18.1275874,2.79836155 18.1317217,2.81073875 C18.1420576,2.84168175 18.1503263,2.87262474 18.158595,2.90356773 C18.1627294,2.92213353 18.1647966,2.94069933 18.1709981,2.95926512 C18.1834012,3.00671105 18.1627294,2.9180078 18.1668637,2.92007066 C18.1792668,2.92213353 18.1730653,3.01496251 18.1730653,3.02940258 C18.1751325,3.24600353 18.3611783,3.45229016 18.5865006,3.44197583 C18.8076885,3.43166149 19.0040702,3.2604436 19,3.02940258 C18.9916672,2.36515964 18.5162166,1.73392257 17.8443842,1.61427633 C17.7162193,1.5915848 17.5921887,1.58333333 17.4640237,1.58333333 C17.2014923,1.58333333 16.9410281,1.58333333 16.6784967,1.58333333 C16.1927102,1.58333333 15.7069237,1.58333333 15.2211373,1.58333333 C14.574111,1.58333333 13.9250176,1.58333333 13.2779914,1.58333333 C12.5296735,1.58333333 11.7792884,1.58333333 11.0309705,1.58333333 C10.2433763,1.58333333 9.45371486,1.58333333 8.66612062,1.58333333 C7.89919815,1.58333333 7.13227567,1.58333333 6.36535319,1.58333333 C5.68111778,1.58333333 4.99688236,1.58333333 4.31264694,1.58333333 C3.77311388,1.58333333 3.23358082,1.58333333 2.69198058,1.58333333 C2.35709799,1.58333333 2.0222154,1.58333333 1.68939998,1.58333333 C1.61911598,1.58333333 1.54676481,1.58333333 1.4764808,1.58333333 C1.09612033,1.5853962 0.736431623,1.71948251 0.455295621,1.97940365 C0.157622207,2.25376486 0.00258397061,2.65189805 0.000516794121,3.0520941 C0.000516794121,3.12635729 0.000516794121,3.20062047 0.000516794121,3.27488366 C0.000516794121,3.63175952 0.000516794121,3.98863538 0.000516794121,4.34757411 C0.000516794121,4.92105093 0.000516794121,5.49452774 0.000516794121,6.07006743 C0.000516794121,6.78588202 0.000516794121,7.50169661 0.000516794121,8.21544833 C0.000516794121,8.99314891 0.000516794121,9.77291235 0.000516794121,10.5506129 C0.000516794121,11.3241878 0.000516794121,12.0977626 0.000516794121,12.8713375 C0.000516794121,13.5623977 0.000516794121,14.251395 0.000516794121,14.9424552 C0.000516794121,15.4746747 0.000516794121,16.0068942 0.000516794121,16.5391137 C0.000516794121,16.8382293 0.000516794121,17.1373449 0.000516794121,17.4364605 C0.000516794121,17.4942207 -0.00155038236,17.551981 0.00258397061,17.6097412 C0.0397931473,18.3028643 0.558654445,18.8887183 1.25322574,18.9815473 C1.44960751,19.0083646 1.65012363,18.9980502 1.84857257,18.9980502 C2.2330674,18.9980502 2.6196294,18.9980502 3.00412423,18.9980502 C3.58086647,18.9980502 4.15760871,18.9980502 4.73641812,18.9980502 C5.44339248,18.9980502 6.15243402,18.9980502 6.85940837,18.9980502 C7.63666673,18.9980502 8.41392509,18.9980502 9.19118345,18.9980502 C9.97671051,18.9980502 10.7622376,18.9980502 11.5456975,18.9980502 C12.2774779,18.9980502 13.0092584,18.9980502 13.7410389,18.9980502 C14.3591247,18.9980502 14.9751433,18.9980502 15.593229,18.9980502 C16.0335376,18.9980502 16.4759134,18.9980502 16.916222,18.9980502 C17.1208724,18.9980502 17.3234557,18.9980502 17.5281062,18.9980502 C18.3467081,18.9959874 18.9958015,18.3399959 19,17.5251637 C19,17.2982484 19,17.073396 19,16.8464807 C19,16.3699586 19,15.8934365 19,15.4189773 C19,14.7629858 19,14.1069943 19,13.4510029 C19,12.6918681 19,11.9327333 19,11.1735985 C19,10.3876465 19,9.59963158 19,8.81367954 C19,8.07311056 19,7.33460444 19,6.59403546 C19,5.97517558 19,5.35837857 19,4.7395187 C19,4.31869398 19,3.89786927 19,3.47704455 C19,3.32851818 19,3.17792895 19,3.02940258 C19,2.81280162 18.8097556,2.60651499 18.5865006,2.61682932 C18.3632455,2.62714366 18.1730653,2.79836155 18.1730653,3.02940258 Z" id="Path" stroke-width="0.6" fill="#BC5940" fill-rule="nonzero"></path>
                        <rect id="Rectangle" x="0.5" y="2.5" width="18" height="4"></rect>
                        <path d="M5.54166667,3.51125768 C5.54166667,2.61567678 5.54166667,1.72009588 5.54166667,0.822281612 C5.54166667,0.697212958 5.54166667,0.572144303 5.54166667,0.447075649 C5.54166667,0.212571922 5.35958333,-0.0107649613 5.14583333,0.000401882805 C4.93208333,0.011568727 4.75,0.19693834 4.75,0.447075649 C4.75,1.34265655 4.75,2.23823745 4.75,3.13605172 C4.75,3.26112038 4.75,3.38618903 4.75,3.51125768 C4.75,3.74576141 4.93208333,3.96909829 5.14583333,3.95793145 C5.3615625,3.94676461 5.54166667,3.76139499 5.54166667,3.51125768 L5.54166667,3.51125768 Z" id="Path" stroke-width="0.6" fill="#BC5940" fill-rule="nonzero"></path>
                        <path d="M13.4583333,0.447075649 C13.4583333,1.34265655 13.4583333,2.23823745 13.4583333,3.13605172 C13.4583333,3.26112038 13.4583333,3.38618903 13.4583333,3.51125768 C13.4583333,3.74576141 13.6404167,3.96909829 13.8541667,3.95793145 C14.0679167,3.94676461 14.25,3.76139499 14.25,3.51125768 C14.25,2.61567678 14.25,1.72009588 14.25,0.822281612 C14.25,0.697212958 14.25,0.572144303 14.25,0.447075649 C14.25,0.212571922 14.0679167,-0.0107649613 13.8541667,0.000401882805 C13.6384375,0.00933535813 13.4583333,0.194704971 13.4583333,0.447075649 L13.4583333,0.447075649 Z" id="Path" stroke-width="0.6" fill="#BC5940" fill-rule="nonzero"></path>
                    </g>
                </g>
            </g>
        </g>
    </g>
</svg>