<svg fill="none" viewBox="0 0 83 83" xmlns="http://www.w3.org/2000/svg">
  <path d="M78.876 60.225c-1.4-1.1-3.1-1.8-4.6-2.5-4.9-2-9.9-3.3-14.2-4.3-1.5-.3-3.6-.9-5.7-.1-1.6.6-2.6 1.8-3.5 2.9-.3.4-.7.8-1 1.2-.8.8-3 .4-5.7-1.1-3.1-1.6-6.8-4.5-10.3-8s-6.4-7.2-8-10.3c-1.5-2.7-1.9-4.9-1.1-5.7.3-.3.7-.6 1.2-1 1.1-.9 2.3-1.9 2.9-3.5.8-2.1.2-4.3-.1-5.7-1-4.3-2.3-9.3-4.3-14.2-.6-1.6-1.4-3.2-2.5-4.6-1.4-1.7-3.1-2.9-5-3.2-2.6-.5-5.5.5-8.4 3-2.2 1.9-4.1 4.2-5.5 6.9s-2.4 5.4-2.8 8.3c-1 6.8.7 14.3 5.3 23 3.9 7.5 8.9 14.3 14.8 20.4v.1c6 5.9 12.9 10.9 20.3 14.8 7.1 3.7 13.4 5.6 19.2 5.6 1.3 0 2.6-.1 3.8-.3 2.9-.4 5.7-1.4 8.3-2.8s4.9-3.3 6.9-5.5c2.5-2.8 3.5-5.7 3-8.4-.1-1.9-1.3-3.7-3-5z" fill="#fff"/>
</svg>
